# xmcd
#
# Track frame offsets: 
#        150
#        1825
#        15438
#        35137
#        50940
#        67921
#        82430
#        104163
#        117582
#        130365
#        144624
#        154281
#        180664
#
# Disc length: 2558 seconds
#
# Revision: 0
# Processed by: cddbd v1.5.2PL0 Copyright (c) Steve Scherf et al.
# Submitted via: ExactAudioCopy v0.99pb5
#
DISCID=c209fc0d
DTITLE=Trickbag - Goin' Downtown
DYEAR=2012
DGENRE=Blues
TTITLE0=Downtown
TTITLE1=Everytime
TTITLE2=Little By Little
TTITLE3=She's Got A Thing Going On
TTITLE4=Greasy Chicken
TTITLE5=What's Goin' On
TTITLE6=Nobody Knows
TTITLE7=Been Waitin' For You
TTITLE8=It's You Baby
TTITLE9=Let's Ride
TTITLE10=So Long Baby Goodbye
TTITLE11=New Farewell To S. P. Leary
TTITLE12=Barking Mood
EXTD=
EXTT0=
EXTT1=
EXTT2=
EXTT3=
EXTT4=
EXTT5=
EXTT6=
EXTT7=
EXTT8=
EXTT9=
EXTT10=
EXTT11=
EXTT12=
PLAYORDER=
